<mxfile host="app.diagrams.net" modified="2020-11-03T09:52:06.634Z" agent="5.0 (Windows NT 10.0; Win64; x64) AppleWebKit/537.36 (KHTML, like Gecko) Chrome/86.0.4240.111 Safari/537.36" etag="jCmOXY9qBvtQUsakG9-6" version="13.8.8" type="github">
  <diagram id="R2lEEEUBdFMjLlhIrx00" name="Page-1">
    <mxGraphModel dx="1185" dy="635" grid="1" gridSize="10" guides="1" tooltips="1" connect="1" arrows="1" fold="1" page="1" pageScale="1" pageWidth="850" pageHeight="1100" math="0" shadow="0" extFonts="Permanent Marker^https://fonts.googleapis.com/css?family=Permanent+Marker">
      <root>
        <mxCell id="0" />
        <mxCell id="1" parent="0" />
        <UserObject label="ï¼š Relation (snake case)" lucidchartObjectId="J92w3vOhZNqa" id="pLCtcRJWkeLQ_BAob0Jh-1">
          <mxCell style="html=1;whiteSpace=wrap;strokeColor=none;fontSize=15;fontColor=#333333;spacing=0;fillColor=#ffffff;" parent="1" vertex="1" zOrder="0">
            <mxGeometry x="1330" y="280" width="180" height="36" as="geometry" />
          </mxCell>
        </UserObject>
        <UserObject label="" lucidchartObjectId=".fisC.M4q9FI" id="pLCtcRJWkeLQ_BAob0Jh-2">
          <mxCell style="html=1;jettySize=18;overflow=width;strokeColor=#333333;strokeOpacity=100;rounded=1;arcSize=16;edgeStyle=orthogonalEdgeStyle;startArrow=none;;endArrow=none;;exitX=0.5;exitY=-0.006944444444444444;exitPerimeter=1;entryX=-0.0025;entryY=0.2655000000000003;entryPerimeter=1;shape=link;" parent="1" source="pLCtcRJWkeLQ_BAob0Jh-58" target="pLCtcRJWkeLQ_BAob0Jh-5" edge="1">
            <mxGeometry width="100" height="100" relative="1" as="geometry" />
          </mxCell>
        </UserObject>
        <mxCell id="pLCtcRJWkeLQ_BAob0Jh-3" value="Care_Taker" style="html=1;whiteSpace=wrap;swimlane;childLayout=stackLayout;horizontal=1;horizontalStack=0;resizeParent=1;resizeParentMax=0;resizeLast=0;collapsible=1;marginBottom=0;swimlaneFillColor=#ffffff;startSize=24;fontSize=11;fontColor=#333333;align=left;spacingLeft=6.72;spacingRight=11.2;spacingTop=3.2;spacing=2;strokeColor=#333333;strokeOpacity=100;fillOpacity=100;rounded=1;absoluteArcSize=1;arcSize=6;fillColor=#ffffff;fillColor=#e0e0e0;" parent="1" vertex="1" zOrder="522.3343915343944">
          <mxGeometry x="1150" y="581" width="139" height="45" as="geometry" />
        </mxCell>
        <mxCell id="pLCtcRJWkeLQ_BAob0Jh-4" value="ct_rating (number)" style="part=1;resizeHeight=0;strokeColor=none;align=left;verticalAlign=top;spacingLeft=4;spacingRight=4;overflow=hidden;rotatable=0;points=[[0,0.5],[1,0.5]];portConstraint=eastwest;html=1;swimlaneFillColor=#ffffff;fontSize=11;fontColor=#333333;fillColor=none;strokeOpacity=100;fillOpacity=100;" parent="pLCtcRJWkeLQ_BAob0Jh-3" vertex="1">
          <mxGeometry y="24" width="139" height="21" as="geometry" />
        </mxCell>
        <mxCell id="pLCtcRJWkeLQ_BAob0Jh-5" value="Pet_Owner" style="html=1;whiteSpace=wrap;swimlane;childLayout=stackLayout;horizontal=1;horizontalStack=0;resizeParent=1;resizeParentMax=0;resizeLast=0;collapsible=1;marginBottom=0;swimlaneFillColor=#ffffff;startSize=24;fontSize=11;fontColor=#333333;align=left;spacingLeft=6.72;spacingRight=11.2;spacingTop=3.2;spacing=2;strokeColor=#333333;strokeOpacity=100;fillOpacity=100;rounded=1;absoluteArcSize=1;arcSize=6;fillColor=#ffffff;fillColor=#e0e0e0;" parent="1" vertex="1" zOrder="523.8529100529129">
          <mxGeometry x="401" y="581" width="120" height="45" as="geometry" />
        </mxCell>
        <mxCell id="pLCtcRJWkeLQ_BAob0Jh-6" value="" style="part=1;resizeHeight=0;strokeColor=none;align=left;verticalAlign=top;spacingLeft=4;spacingRight=4;overflow=hidden;rotatable=0;points=[[0,0.5],[1,0.5]];portConstraint=eastwest;html=1;swimlaneFillColor=#ffffff;fontSize=11;fillColor=none;strokeOpacity=100;fillOpacity=100;" parent="pLCtcRJWkeLQ_BAob0Jh-5" vertex="1">
          <mxGeometry y="24" width="120" height="21" as="geometry" />
        </mxCell>
        <mxCell id="pLCtcRJWkeLQ_BAob0Jh-7" value="Full Time" style="html=1;whiteSpace=wrap;swimlane;childLayout=stackLayout;horizontal=1;horizontalStack=0;resizeParent=1;resizeParentMax=0;resizeLast=0;collapsible=1;marginBottom=0;swimlaneFillColor=#ffffff;startSize=24;fontSize=11;fontColor=#333333;align=left;spacingLeft=6.72;spacingRight=11.2;spacingTop=3.2;spacing=2;strokeColor=#333333;strokeOpacity=100;fillOpacity=100;rounded=1;absoluteArcSize=1;arcSize=6;fillColor=#ffffff;fillColor=#e0e0e0;" parent="1" vertex="1" zOrder="525.5566137566166">
          <mxGeometry x="1563" y="858" width="120" height="45" as="geometry" />
        </mxCell>
        <mxCell id="pLCtcRJWkeLQ_BAob0Jh-8" value="" style="part=1;resizeHeight=0;strokeColor=none;align=left;verticalAlign=top;spacingLeft=4;spacingRight=4;overflow=hidden;rotatable=0;points=[[0,0.5],[1,0.5]];portConstraint=eastwest;html=1;swimlaneFillColor=#ffffff;fontSize=11;fillColor=none;strokeOpacity=100;fillOpacity=100;" parent="pLCtcRJWkeLQ_BAob0Jh-7" vertex="1">
          <mxGeometry y="24" width="120" height="21" as="geometry" />
        </mxCell>
        <mxCell id="pLCtcRJWkeLQ_BAob0Jh-9" value="Part time" style="html=1;whiteSpace=wrap;swimlane;childLayout=stackLayout;horizontal=1;horizontalStack=0;resizeParent=1;resizeParentMax=0;resizeLast=0;collapsible=1;marginBottom=0;swimlaneFillColor=#ffffff;startSize=24;fontSize=11;fontColor=#333333;align=left;spacing=0;strokeColor=#333333;strokeOpacity=100;fillOpacity=100;rounded=1;absoluteArcSize=1;arcSize=6;fillColor=#ffffff;fillColor=#e0e0e0;" parent="1" vertex="1" zOrder="654.7640211640266">
          <mxGeometry x="1388" y="862" width="120" height="43.2" as="geometry" />
        </mxCell>
        <mxCell id="pLCtcRJWkeLQ_BAob0Jh-10" value="" style="part=1;resizeHeight=0;strokeColor=none;align=left;verticalAlign=top;spacingLeft=4;spacingRight=4;overflow=hidden;rotatable=0;points=[[0,0.5],[1,0.5]];portConstraint=eastwest;html=1;swimlaneFillColor=#ffffff;fontSize=11;fillColor=none;strokeOpacity=100;fillOpacity=100;" parent="pLCtcRJWkeLQ_BAob0Jh-9" vertex="1">
          <mxGeometry y="24" width="120" height="19.2" as="geometry" />
        </mxCell>
        <mxCell id="pLCtcRJWkeLQ_BAob0Jh-11" value="User" style="html=1;whiteSpace=wrap;swimlane;childLayout=stackLayout;horizontal=1;horizontalStack=0;resizeParent=1;resizeParentMax=0;resizeLast=0;collapsible=1;marginBottom=0;swimlaneFillColor=#ffffff;startSize=24;fontSize=11;fontColor=#333333;align=left;spacingLeft=6.72;spacingRight=11.2;spacingTop=3.2;spacing=2;strokeColor=#333333;strokeOpacity=100;fillOpacity=100;rounded=1;absoluteArcSize=1;arcSize=6;fillColor=#ffffff;fillColor=#e0e0e0;" parent="1" vertex="1" zOrder="655.7640211640266">
          <mxGeometry x="765" y="288" width="157" height="165.6" as="geometry" />
        </mxCell>
        <mxCell id="pLCtcRJWkeLQ_BAob0Jh-12" value="&lt;span style=&quot;text-align: center;&quot;&gt;  &lt;/span&gt;&lt;span style=&quot;text-decoration: underline;text-align: center;&quot;&gt;email&lt;/span&gt;" style="part=1;resizeHeight=0;strokeColor=none;align=left;verticalAlign=top;spacingLeft=4;spacingRight=4;overflow=hidden;rotatable=0;points=[[0,0.5],[1,0.5]];portConstraint=eastwest;html=1;swimlaneFillColor=#ffffff;fontSize=11;fontStyle=4;fillColor=none;strokeOpacity=100;fillOpacity=100;" parent="pLCtcRJWkeLQ_BAob0Jh-11" vertex="1">
          <mxGeometry y="24" width="157" height="19.2" as="geometry" />
        </mxCell>
        <mxCell id="pLCtcRJWkeLQ_BAob0Jh-13" value="password" style="part=1;resizeHeight=0;strokeColor=none;align=left;verticalAlign=top;spacingLeft=4;spacingRight=4;overflow=hidden;rotatable=0;points=[[0,0.5],[1,0.5]];portConstraint=eastwest;html=1;swimlaneFillColor=#ffffff;fontSize=11;fontColor=#000000;fillColor=#000000;opacity=5;" parent="pLCtcRJWkeLQ_BAob0Jh-11" vertex="1">
          <mxGeometry y="43.2" width="157" height="21" as="geometry" />
        </mxCell>
        <mxCell id="pLCtcRJWkeLQ_BAob0Jh-14" value="  first_name" style="part=1;resizeHeight=0;strokeColor=none;align=left;verticalAlign=top;spacingLeft=4;spacingRight=4;overflow=hidden;rotatable=0;points=[[0,0.5],[1,0.5]];portConstraint=eastwest;html=1;swimlaneFillColor=#ffffff;fontSize=11;fillColor=none;strokeOpacity=100;fillOpacity=100;" parent="pLCtcRJWkeLQ_BAob0Jh-11" vertex="1">
          <mxGeometry y="64.2" width="157" height="19.2" as="geometry" />
        </mxCell>
        <mxCell id="pLCtcRJWkeLQ_BAob0Jh-15" value="last_name" style="part=1;resizeHeight=0;strokeColor=none;align=left;verticalAlign=top;spacingLeft=4;spacingRight=4;overflow=hidden;rotatable=0;points=[[0,0.5],[1,0.5]];portConstraint=eastwest;html=1;swimlaneFillColor=#ffffff;fontSize=11;fontColor=#000000;fillColor=#000000;opacity=5;" parent="pLCtcRJWkeLQ_BAob0Jh-11" vertex="1">
          <mxGeometry y="83.4" width="157" height="21" as="geometry" />
        </mxCell>
        <mxCell id="pLCtcRJWkeLQ_BAob0Jh-16" value="address" style="part=1;resizeHeight=0;strokeColor=none;align=left;verticalAlign=top;spacingLeft=4;spacingRight=4;overflow=hidden;rotatable=0;points=[[0,0.5],[1,0.5]];portConstraint=eastwest;html=1;swimlaneFillColor=#ffffff;fontSize=11;fontColor=#000000;fillColor=none;strokeOpacity=100;fillOpacity=100;" parent="pLCtcRJWkeLQ_BAob0Jh-11" vertex="1">
          <mxGeometry y="104.4" width="157" height="21" as="geometry" />
        </mxCell>
        <mxCell id="pLCtcRJWkeLQ_BAob0Jh-17" value="  avatar_url" style="part=1;resizeHeight=0;strokeColor=none;align=left;verticalAlign=top;spacingLeft=4;spacingRight=4;overflow=hidden;rotatable=0;points=[[0,0.5],[1,0.5]];portConstraint=eastwest;html=1;swimlaneFillColor=#ffffff;fontSize=11;fillColor=#000000;opacity=5;" parent="pLCtcRJWkeLQ_BAob0Jh-11" vertex="1">
          <mxGeometry y="125.4" width="157" height="19.2" as="geometry" />
        </mxCell>
        <mxCell id="pLCtcRJWkeLQ_BAob0Jh-18" value="phone" style="part=1;resizeHeight=0;strokeColor=none;align=left;verticalAlign=top;spacingLeft=4;spacingRight=4;overflow=hidden;rotatable=0;points=[[0,0.5],[1,0.5]];portConstraint=eastwest;html=1;swimlaneFillColor=#ffffff;fontSize=11;fontColor=#000000;fillColor=none;strokeOpacity=100;fillOpacity=100;" parent="pLCtcRJWkeLQ_BAob0Jh-11" vertex="1">
          <mxGeometry y="144.6" width="157" height="21" as="geometry" />
        </mxCell>
        <mxCell id="pLCtcRJWkeLQ_BAob0Jh-19" value="" style="group;dropTarget=0;" parent="1" vertex="1">
          <mxGeometry x="140" y="123" width="512" height="46" as="geometry" />
        </mxCell>
        <UserObject label="&lt;div style=&quot;font-size:16px;color:#a9afb8;font-weight: bold;text-align: center;margin-left: 6px;margin-right: 6px;margin-top: 2px;&quot;&gt;CS2102_2021_S1_Team75&#xa;&lt;/div&gt;&lt;div style=&quot;font-size:16px;color:#a9afb8;font-weight: bold;text-align: center;margin-left: 6px;margin-right: 6px;margin-top: 2px;&quot;&gt;ER Diagram v1&lt;/div&gt;" lucidchartObjectId="7P10iKuZFoYz" id="pLCtcRJWkeLQ_BAob0Jh-20">
          <mxCell style="html=1;whiteSpace=wrap;;overflow=width;spacing=2;strokeOpacity=0;fillOpacity=0;rounded=1;absoluteArcSize=1;arcSize=9.6;fillColor=#ffffff;" parent="pLCtcRJWkeLQ_BAob0Jh-19" vertex="1" zOrder="689.8961818343835">
            <mxGeometry width="512" height="46" as="geometry" />
          </mxCell>
        </UserObject>
        <mxCell id="pLCtcRJWkeLQ_BAob0Jh-21" value="Pet" style="html=1;whiteSpace=wrap;swimlane;childLayout=stackLayout;horizontal=1;horizontalStack=0;resizeParent=1;resizeParentMax=0;resizeLast=0;collapsible=1;marginBottom=0;swimlaneFillColor=#ffffff;startSize=24;fontSize=11;fontColor=#333333;align=left;spacingLeft=6.72;spacingRight=11.2;spacingTop=3.2;spacing=2;strokeColor=#333333;strokeOpacity=100;fillOpacity=100;rounded=1;absoluteArcSize=1;arcSize=6;fillColor=#ffffff;fillColor=#e0e0e0;" parent="1" vertex="1" zOrder="719">
          <mxGeometry x="556" y="1210" width="146" height="87" as="geometry" />
        </mxCell>
        <mxCell id="pLCtcRJWkeLQ_BAob0Jh-22" value="name" style="part=1;resizeHeight=0;strokeColor=none;align=left;verticalAlign=top;spacingLeft=4;spacingRight=4;overflow=hidden;rotatable=0;points=[[0,0.5],[1,0.5]];portConstraint=eastwest;html=1;swimlaneFillColor=#ffffff;fontSize=11;fontColor=#333333;fontStyle=4;fillColor=none;strokeOpacity=100;fillOpacity=100;" parent="pLCtcRJWkeLQ_BAob0Jh-21" vertex="1">
          <mxGeometry y="24" width="146" height="21" as="geometry" />
        </mxCell>
        <mxCell id="pLCtcRJWkeLQ_BAob0Jh-23" value="requirements" style="part=1;resizeHeight=0;strokeColor=none;align=left;verticalAlign=top;spacingLeft=4;spacingRight=4;overflow=hidden;rotatable=0;points=[[0,0.5],[1,0.5]];portConstraint=eastwest;html=1;swimlaneFillColor=#ffffff;fontSize=11;fontColor=#333333;fillColor=#000000;opacity=5;" parent="pLCtcRJWkeLQ_BAob0Jh-21" vertex="1">
          <mxGeometry y="45" width="146" height="21" as="geometry" />
        </mxCell>
        <mxCell id="pLCtcRJWkeLQ_BAob0Jh-24" value="remarks" style="part=1;resizeHeight=0;strokeColor=none;align=left;verticalAlign=top;spacingLeft=4;spacingRight=4;overflow=hidden;rotatable=0;points=[[0,0.5],[1,0.5]];portConstraint=eastwest;html=1;swimlaneFillColor=#ffffff;fontSize=11;fontColor=#000000;fillColor=none;strokeOpacity=100;fillOpacity=100;" parent="pLCtcRJWkeLQ_BAob0Jh-21" vertex="1">
          <mxGeometry y="66" width="146" height="21" as="geometry" />
        </mxCell>
        <mxCell id="pLCtcRJWkeLQ_BAob0Jh-26" value="Pet_Category" style="html=1;whiteSpace=wrap;swimlane;childLayout=stackLayout;horizontal=1;horizontalStack=0;resizeParent=1;resizeParentMax=0;resizeLast=0;collapsible=1;marginBottom=0;swimlaneFillColor=#ffffff;startSize=24;fontSize=11;fontColor=#333333;align=left;spacingLeft=6.72;spacingRight=11.2;spacingTop=3.2;spacing=2;strokeColor=#333333;strokeOpacity=100;fillOpacity=100;rounded=1;absoluteArcSize=1;arcSize=6;fillColor=#ffffff;fillColor=#e0e0e0;" parent="1" vertex="1" zOrder="1049.1894179894152">
          <mxGeometry x="1136" y="1240" width="156" height="66" as="geometry" />
        </mxCell>
        <mxCell id="pLCtcRJWkeLQ_BAob0Jh-27" value="pet_type_name" style="part=1;resizeHeight=0;strokeColor=none;align=left;verticalAlign=top;spacingLeft=4;spacingRight=4;overflow=hidden;rotatable=0;points=[[0,0.5],[1,0.5]];portConstraint=eastwest;html=1;swimlaneFillColor=#ffffff;fontSize=11;fontColor=#333333;fontStyle=4;fillColor=none;strokeOpacity=100;fillOpacity=100;" parent="pLCtcRJWkeLQ_BAob0Jh-26" vertex="1">
          <mxGeometry y="24" width="156" height="21" as="geometry" />
        </mxCell>
        <mxCell id="pLCtcRJWkeLQ_BAob0Jh-28" value="pet_type_base_daily_price" style="part=1;resizeHeight=0;strokeColor=none;align=left;verticalAlign=top;spacingLeft=4;spacingRight=4;overflow=hidden;rotatable=0;points=[[0,0.5],[1,0.5]];portConstraint=eastwest;html=1;swimlaneFillColor=#ffffff;fontSize=11;fontColor=#333333;fillColor=#000000;opacity=5;" parent="pLCtcRJWkeLQ_BAob0Jh-26" vertex="1">
          <mxGeometry y="45" width="156" height="21" as="geometry" />
        </mxCell>
        <mxCell id="pLCtcRJWkeLQ_BAob0Jh-29" value="PCS Administrator" style="html=1;whiteSpace=wrap;swimlane;childLayout=stackLayout;horizontal=1;horizontalStack=0;resizeParent=1;resizeParentMax=0;resizeLast=0;collapsible=1;marginBottom=0;swimlaneFillColor=#ffffff;startSize=24;fontSize=11;fontColor=#333333;align=left;spacingLeft=6.72;spacingRight=11.2;spacingTop=3.2;spacing=2;strokeColor=#333333;strokeOpacity=100;fillOpacity=100;rounded=1;absoluteArcSize=1;arcSize=6;fillColor=#ffffff;fillColor=#e0e0e0;" parent="1" vertex="1" zOrder="1054.1894179894152">
          <mxGeometry x="436" y="294" width="120" height="108" as="geometry" />
        </mxCell>
        <mxCell id="pLCtcRJWkeLQ_BAob0Jh-30" value="email" style="part=1;resizeHeight=0;strokeColor=none;align=left;verticalAlign=top;spacingLeft=4;spacingRight=4;overflow=hidden;rotatable=0;points=[[0,0.5],[1,0.5]];portConstraint=eastwest;html=1;swimlaneFillColor=#ffffff;fontSize=11;fontColor=#000000;fontStyle=4;fillColor=none;strokeOpacity=100;fillOpacity=100;" parent="pLCtcRJWkeLQ_BAob0Jh-29" vertex="1">
          <mxGeometry y="24" width="120" height="21" as="geometry" />
        </mxCell>
        <mxCell id="pLCtcRJWkeLQ_BAob0Jh-31" value="admin_password" style="part=1;resizeHeight=0;strokeColor=none;align=left;verticalAlign=top;spacingLeft=4;spacingRight=4;overflow=hidden;rotatable=0;points=[[0,0.5],[1,0.5]];portConstraint=eastwest;html=1;swimlaneFillColor=#ffffff;fontSize=11;fontColor=#000000;fillColor=#000000;opacity=5;" parent="pLCtcRJWkeLQ_BAob0Jh-29" vertex="1">
          <mxGeometry y="45" width="120" height="21" as="geometry" />
        </mxCell>
        <mxCell id="pLCtcRJWkeLQ_BAob0Jh-32" value="admin_name" style="part=1;resizeHeight=0;strokeColor=none;align=left;verticalAlign=top;spacingLeft=4;spacingRight=4;overflow=hidden;rotatable=0;points=[[0,0.5],[1,0.5]];portConstraint=eastwest;html=1;swimlaneFillColor=#ffffff;fontSize=11;fontColor=#000000;fillColor=none;strokeOpacity=100;fillOpacity=100;" parent="pLCtcRJWkeLQ_BAob0Jh-29" vertex="1">
          <mxGeometry y="66" width="120" height="21" as="geometry" />
        </mxCell>
        <mxCell id="pLCtcRJWkeLQ_BAob0Jh-33" value="admin_avatar" style="part=1;resizeHeight=0;strokeColor=none;align=left;verticalAlign=top;spacingLeft=4;spacingRight=4;overflow=hidden;rotatable=0;points=[[0,0.5],[1,0.5]];portConstraint=eastwest;html=1;swimlaneFillColor=#ffffff;fontSize=11;fontColor=#000000;fillColor=#000000;opacity=5;" parent="pLCtcRJWkeLQ_BAob0Jh-29" vertex="1">
          <mxGeometry y="87" width="120" height="21" as="geometry" />
        </mxCell>
        <UserObject label="" lucidchartObjectId="eF0wk0n9QOhP" id="pLCtcRJWkeLQ_BAob0Jh-34">
          <mxCell style="html=1;jettySize=18;overflow=width;rounded=0;startArrow=none;;endArrow=none;;exitX=0.5;exitY=1.0069444444444444;exitPerimeter=1;" parent="1" source="pLCtcRJWkeLQ_BAob0Jh-58" edge="1">
            <mxGeometry width="100" height="100" relative="1" as="geometry">
              <Array as="points" />
              <mxPoint x="276" y="730" as="targetPoint" />
            </mxGeometry>
          </mxCell>
        </UserObject>
        <UserObject label="" lucidchartObjectId="Ok1wGXs0Cxxs" id="pLCtcRJWkeLQ_BAob0Jh-40">
          <mxCell style="html=1;jettySize=18;overflow=width;strokeColor=#333333;strokeOpacity=100;rounded=1;arcSize=24;edgeStyle=orthogonalEdgeStyle;startArrow=none;;endArrow=none;;exitX=0.5;exitY=1.0066666666666682;exitPerimeter=1;entryX=0.5;entryY=-0.006944444444444444;entryPerimeter=1;shape=link;" parent="1" source="pLCtcRJWkeLQ_BAob0Jh-3" target="pLCtcRJWkeLQ_BAob0Jh-48" edge="1">
            <mxGeometry width="100" height="100" relative="1" as="geometry">
              <Array as="points">
                <mxPoint x="1220" y="800" />
              </Array>
            </mxGeometry>
          </mxCell>
        </UserObject>
        <UserObject label="" lucidchartObjectId="3k1wYldF0scP" id="pLCtcRJWkeLQ_BAob0Jh-41">
          <mxCell style="html=1;jettySize=18;overflow=width;strokeColor=#333333;strokeOpacity=100;rounded=1;arcSize=24;edgeStyle=orthogonalEdgeStyle;startArrow=none;;endArrow=none;;exitX=0.5;exitY=1.0069444444444444;exitPerimeter=1;entryX=0.5338647266316752;entryY=-0.004545454545454545;entryPerimeter=1;" parent="1" source="pLCtcRJWkeLQ_BAob0Jh-48" target="pLCtcRJWkeLQ_BAob0Jh-26" edge="1">
            <mxGeometry width="100" height="100" relative="1" as="geometry">
              <Array as="points" />
            </mxGeometry>
          </mxCell>
        </UserObject>
        <UserObject label="ISA" lucidchartObjectId="Zm1wp87TRQOu" id="pLCtcRJWkeLQ_BAob0Jh-42">
          <mxCell style="html=1;whiteSpace=wrap;shape=triangle;direction=north;fontSize=11;fontColor=#333333;align=center;spacingLeft=6.72;spacingRight=11.2;spacingTop=3.2;spacing=3;strokeColor=#155571;fillOpacity=100;rounded=1;absoluteArcSize=1;arcSize=9.6;fillColor=#29aae1;" parent="1" vertex="1" zOrder="1092.1894179894152">
            <mxGeometry x="782" y="504" width="86" height="37" as="geometry" />
          </mxCell>
        </UserObject>
        <UserObject label="" lucidchartObjectId="Zm1wcgM~XhMM" id="pLCtcRJWkeLQ_BAob0Jh-43">
          <mxCell style="html=1;jettySize=18;overflow=width;rounded=0;startArrow=none;;endArrow=none;;exitX=0.054;exitY=0.058;exitPerimeter=0;entryX=0.5;entryY=-0.006666666666666667;entryPerimeter=1;exitDx=0;exitDy=0;" parent="1" source="pLCtcRJWkeLQ_BAob0Jh-42" target="pLCtcRJWkeLQ_BAob0Jh-5" edge="1">
            <mxGeometry width="100" height="100" relative="1" as="geometry">
              <Array as="points" />
            </mxGeometry>
          </mxCell>
        </UserObject>
        <UserObject label="" lucidchartObjectId="Zm1w4iTG2UIC" id="pLCtcRJWkeLQ_BAob0Jh-44">
          <mxCell style="html=1;jettySize=18;overflow=width;rounded=0;startArrow=none;;endArrow=none;;entryX=0.5;entryY=-0.006666666666666762;entryPerimeter=1;" parent="1" target="pLCtcRJWkeLQ_BAob0Jh-3" edge="1">
            <mxGeometry width="100" height="100" relative="1" as="geometry">
              <Array as="points" />
              <mxPoint x="868" y="540" as="sourcePoint" />
            </mxGeometry>
          </mxCell>
        </UserObject>
        <UserObject label="" lucidchartObjectId="Zm1wftv0lwO5" id="pLCtcRJWkeLQ_BAob0Jh-45">
          <mxCell style="html=1;jettySize=18;overflow=width;strokeColor=#333333;strokeOpacity=100;rounded=1;arcSize=24;edgeStyle=orthogonalEdgeStyle;startArrow=none;;endArrow=none;;exitX=0.38208110619328683;exitY=1.0018115942028984;exitPerimeter=1;entryX=1;entryY=0.5;entryDx=0;entryDy=0;" parent="1" source="pLCtcRJWkeLQ_BAob0Jh-11" target="pLCtcRJWkeLQ_BAob0Jh-42" edge="1">
            <mxGeometry width="100" height="100" relative="1" as="geometry">
              <Array as="points" />
              <mxPoint x="825" y="490" as="targetPoint" />
            </mxGeometry>
          </mxCell>
        </UserObject>
        <UserObject label="" lucidchartObjectId="lN1w8nqqmAUg" id="pLCtcRJWkeLQ_BAob0Jh-47">
          <mxCell style="html=1;jettySize=18;overflow=width;rounded=0;startArrow=none;;endArrow=none;;exitX=1.0025;exitY=0.2777777777777778;exitPerimeter=1;entryX=-0.0019221987116632689;entryY=0.18059496445621329;entryPerimeter=1;" parent="1" source="pLCtcRJWkeLQ_BAob0Jh-55" target="pLCtcRJWkeLQ_BAob0Jh-26" edge="1">
            <mxGeometry width="100" height="100" relative="1" as="geometry">
              <Array as="points" />
            </mxGeometry>
          </mxCell>
        </UserObject>
        <mxCell id="pLCtcRJWkeLQ_BAob0Jh-48" value="specialised_for" style="html=1;whiteSpace=wrap;swimlane;childLayout=stackLayout;horizontal=1;horizontalStack=0;resizeParent=1;resizeParentMax=0;resizeLast=0;collapsible=1;marginBottom=0;swimlaneFillColor=#ffeca9;startSize=24;fontSize=11;fontColor=#333333;align=left;spacing=0;strokeColor=#333333;strokeOpacity=100;fillOpacity=100;rounded=1;absoluteArcSize=1;arcSize=6;fillColor=#ffeca9;fillColor=#e0e0e0;" parent="1" vertex="1" zOrder="1123.1894179894152">
          <mxGeometry x="1159" y="945" width="120" height="43.2" as="geometry" />
        </mxCell>
        <mxCell id="pLCtcRJWkeLQ_BAob0Jh-49" value="daily_price" style="part=1;resizeHeight=0;strokeColor=none;align=left;verticalAlign=top;spacingLeft=4;spacingRight=4;overflow=hidden;rotatable=0;points=[[0,0.5],[1,0.5]];portConstraint=eastwest;html=1;swimlaneFillColor=#ffeca9;fontSize=11;fontColor=#333333;fillColor=none;strokeOpacity=100;fillOpacity=100;" parent="pLCtcRJWkeLQ_BAob0Jh-48" vertex="1">
          <mxGeometry y="24" width="120" height="19.2" as="geometry" />
        </mxCell>
        <mxCell id="pLCtcRJWkeLQ_BAob0Jh-50" value="Credit_card" style="html=1;whiteSpace=wrap;swimlane;childLayout=stackLayout;horizontal=1;horizontalStack=0;resizeParent=1;resizeParentMax=0;resizeLast=0;collapsible=1;marginBottom=0;swimlaneFillColor=#ffffff;startSize=24;fontSize=11;fontColor=#333333;align=left;spacingLeft=6.72;spacingRight=11.2;spacingTop=3.2;spacing=2;strokeColor=#333333;strokeOpacity=100;fillOpacity=100;rounded=1;absoluteArcSize=1;arcSize=6;fillColor=#ffffff;fillColor=#e0e0e0;" parent="1" vertex="1" zOrder="1129.1894179894152">
          <mxGeometry x="432" y="738" width="126" height="102.60000000000001" as="geometry" />
        </mxCell>
        <mxCell id="pLCtcRJWkeLQ_BAob0Jh-51" value="&lt;span style=&quot;text-align: center;&quot;&gt;  &lt;/span&gt;&lt;span style=&quot;text-decoration: underline;text-align: center;&quot;&gt;card_number&lt;/span&gt;" style="part=1;resizeHeight=0;strokeColor=none;align=left;verticalAlign=top;spacingLeft=4;spacingRight=4;overflow=hidden;rotatable=0;points=[[0,0.5],[1,0.5]];portConstraint=eastwest;html=1;swimlaneFillColor=#ffffff;fontSize=11;fontStyle=4;fillColor=none;strokeOpacity=100;fillOpacity=100;" parent="pLCtcRJWkeLQ_BAob0Jh-50" vertex="1">
          <mxGeometry y="24" width="126" height="19.2" as="geometry" />
        </mxCell>
        <mxCell id="pLCtcRJWkeLQ_BAob0Jh-52" value="  expiry_date" style="part=1;resizeHeight=0;strokeColor=none;align=left;verticalAlign=top;spacingLeft=4;spacingRight=4;overflow=hidden;rotatable=0;points=[[0,0.5],[1,0.5]];portConstraint=eastwest;html=1;swimlaneFillColor=#ffffff;fontSize=11;fillColor=#000000;opacity=5;" parent="pLCtcRJWkeLQ_BAob0Jh-50" vertex="1">
          <mxGeometry y="43.2" width="126" height="19.2" as="geometry" />
        </mxCell>
        <mxCell id="pLCtcRJWkeLQ_BAob0Jh-53" value="card_holder" style="part=1;resizeHeight=0;strokeColor=none;align=left;verticalAlign=top;spacingLeft=4;spacingRight=4;overflow=hidden;rotatable=0;points=[[0,0.5],[1,0.5]];portConstraint=eastwest;html=1;swimlaneFillColor=#ffffff;fontSize=11;fontColor=#000000;fillColor=none;strokeOpacity=100;fillOpacity=100;" parent="pLCtcRJWkeLQ_BAob0Jh-50" vertex="1">
          <mxGeometry y="62.400000000000006" width="126" height="21" as="geometry" />
        </mxCell>
        <mxCell id="pLCtcRJWkeLQ_BAob0Jh-54" value="   secutiry_code" style="part=1;resizeHeight=0;strokeColor=none;align=left;verticalAlign=top;spacingLeft=4;spacingRight=4;overflow=hidden;rotatable=0;points=[[0,0.5],[1,0.5]];portConstraint=eastwest;html=1;swimlaneFillColor=#ffffff;fontSize=11;fillColor=#000000;opacity=5;" parent="pLCtcRJWkeLQ_BAob0Jh-50" vertex="1">
          <mxGeometry y="83.4" width="126" height="19.2" as="geometry" />
        </mxCell>
        <mxCell id="pLCtcRJWkeLQ_BAob0Jh-55" value="belongs_to" style="html=1;whiteSpace=wrap;swimlane;childLayout=stackLayout;horizontal=1;horizontalStack=0;resizeParent=1;resizeParentMax=0;resizeLast=0;collapsible=1;marginBottom=0;swimlaneFillColor=#ffeca9;startSize=24;fontSize=11;fontColor=#333333;align=left;spacing=0;strokeColor=#333333;strokeOpacity=100;fillOpacity=100;rounded=1;absoluteArcSize=1;arcSize=6;fillColor=#ffeca9;fillColor=#e0e0e0;" parent="1" vertex="1" zOrder="1132.1894179894152">
          <mxGeometry x="864" y="1240" width="120" height="43.2" as="geometry" />
        </mxCell>
        <mxCell id="pLCtcRJWkeLQ_BAob0Jh-56" value="" style="part=1;resizeHeight=0;strokeColor=none;align=left;verticalAlign=top;spacingLeft=4;spacingRight=4;overflow=hidden;rotatable=0;points=[[0,0.5],[1,0.5]];portConstraint=eastwest;html=1;swimlaneFillColor=#ffeca9;fontSize=11;fillColor=none;strokeOpacity=100;fillOpacity=100;" parent="pLCtcRJWkeLQ_BAob0Jh-55" vertex="1">
          <mxGeometry y="24" width="120" height="19.2" as="geometry" />
        </mxCell>
        <UserObject label="" lucidchartObjectId="B01wCE1-mpaB" id="pLCtcRJWkeLQ_BAob0Jh-57">
          <mxCell style="html=1;jettySize=18;overflow=width;strokeColor=#333333;strokeOpacity=100;rounded=0;startArrow=none;;endArrow=none;;" parent="1" edge="1">
            <mxGeometry width="100" height="100" relative="1" as="geometry">
              <Array as="points" />
              <mxPoint x="1241" y="774" as="sourcePoint" />
              <mxPoint x="1239" y="774" as="targetPoint" />
            </mxGeometry>
          </mxCell>
        </UserObject>
        <mxCell id="pLCtcRJWkeLQ_BAob0Jh-58" value="keeps" style="html=1;whiteSpace=wrap;swimlane;childLayout=stackLayout;horizontal=1;horizontalStack=0;resizeParent=1;resizeParentMax=0;resizeLast=0;collapsible=1;marginBottom=0;swimlaneFillColor=#ffeca9;startSize=24;fontSize=11;fontColor=#333333;align=left;spacingLeft=6.72;spacingRight=11.2;spacingTop=3.2;spacing=2;strokeColor=#333333;strokeOpacity=100;fillOpacity=100;rounded=1;absoluteArcSize=1;arcSize=6;fillColor=#ffeca9;fillColor=#e0e0e0;" parent="1" vertex="1" zOrder="1142.1894179894152">
          <mxGeometry x="217" y="709" width="120" height="43.2" as="geometry" />
        </mxCell>
        <mxCell id="pLCtcRJWkeLQ_BAob0Jh-59" value="" style="part=1;resizeHeight=0;strokeColor=none;align=left;verticalAlign=top;spacingLeft=4;spacingRight=4;overflow=hidden;rotatable=0;points=[[0,0.5],[1,0.5]];portConstraint=eastwest;html=1;swimlaneFillColor=#ffeca9;fontSize=11;fillColor=none;strokeOpacity=100;fillOpacity=100;" parent="pLCtcRJWkeLQ_BAob0Jh-58" vertex="1">
          <mxGeometry y="24" width="120" height="19.2" as="geometry" />
        </mxCell>
        <mxCell id="pLCtcRJWkeLQ_BAob0Jh-60" value="places_bid" style="html=1;whiteSpace=wrap;swimlane;childLayout=stackLayout;horizontal=1;horizontalStack=0;resizeParent=1;resizeParentMax=0;resizeLast=0;collapsible=1;marginBottom=0;swimlaneFillColor=#ffeca9;startSize=24;fontSize=11;fontColor=#333333;align=left;spacingLeft=6.72;spacingRight=11.2;spacingTop=3.2;spacing=2;strokeColor=#333333;strokeOpacity=100;fillOpacity=100;rounded=1;absoluteArcSize=1;arcSize=6;fillColor=#ffeca9;fillColor=#e0e0e0;" parent="1" vertex="1" zOrder="1143.1894179894152">
          <mxGeometry x="845" y="581" width="120" height="43.2" as="geometry" />
        </mxCell>
        <mxCell id="pLCtcRJWkeLQ_BAob0Jh-61" value="" style="part=1;resizeHeight=0;strokeColor=none;align=left;verticalAlign=top;spacingLeft=4;spacingRight=4;overflow=hidden;rotatable=0;points=[[0,0.5],[1,0.5]];portConstraint=eastwest;html=1;swimlaneFillColor=#ffeca9;fontSize=11;fillColor=none;strokeOpacity=100;fillOpacity=100;" parent="pLCtcRJWkeLQ_BAob0Jh-60" vertex="1">
          <mxGeometry y="24" width="120" height="19.2" as="geometry" />
        </mxCell>
        <mxCell id="pLCtcRJWkeLQ_BAob0Jh-62" value="paid_for" style="html=1;whiteSpace=wrap;swimlane;childLayout=stackLayout;horizontal=1;horizontalStack=0;resizeParent=1;resizeParentMax=0;resizeLast=0;collapsible=1;marginBottom=0;swimlaneFillColor=#ffeca9;startSize=24;fontSize=11;fontColor=#333333;align=left;spacingLeft=6.72;spacingRight=11.2;spacingTop=3.2;spacing=2;strokeColor=#333333;strokeOpacity=100;fillOpacity=100;rounded=1;absoluteArcSize=1;arcSize=6;fillColor=#ffeca9;fillColor=#e0e0e0;" parent="1" vertex="1" zOrder="1144.1894179894152">
          <mxGeometry x="435" y="894.8" width="120" height="43.2" as="geometry" />
        </mxCell>
        <mxCell id="pLCtcRJWkeLQ_BAob0Jh-63" value="" style="part=1;resizeHeight=0;strokeColor=none;align=left;verticalAlign=top;spacingLeft=4;spacingRight=4;overflow=hidden;rotatable=0;points=[[0,0.5],[1,0.5]];portConstraint=eastwest;html=1;swimlaneFillColor=#ffeca9;fontSize=11;fillColor=none;strokeOpacity=100;fillOpacity=100;" parent="pLCtcRJWkeLQ_BAob0Jh-62" vertex="1">
          <mxGeometry y="24" width="120" height="19.2" as="geometry" />
        </mxCell>
        <UserObject label="ISA" lucidchartObjectId="F-1wIIA9BhnV" id="pLCtcRJWkeLQ_BAob0Jh-64">
          <mxCell style="html=1;whiteSpace=wrap;shape=triangle;direction=north;fontSize=11;fontColor=#333333;align=center;spacingLeft=6.72;spacingRight=11.2;spacingTop=3.2;spacing=3;strokeColor=#155571;fillOpacity=100;rounded=1;absoluteArcSize=1;arcSize=9.6;fillColor=#29aae1;" parent="1" vertex="1" zOrder="1147.1894179894152">
            <mxGeometry x="1491" y="738" width="88" height="42" as="geometry" />
          </mxCell>
        </UserObject>
        <UserObject label="" lucidchartObjectId="N.1wyCxKDHjT" id="pLCtcRJWkeLQ_BAob0Jh-65">
          <mxCell style="html=1;jettySize=18;overflow=width;strokeColor=#333333;strokeOpacity=100;rounded=1;arcSize=24;edgeStyle=orthogonalEdgeStyle;startArrow=none;;endArrow=none;;exitX=-0.0022727272727272726;exitY=0.5;exitPerimeter=1;entryX=1.0025;entryY=0.779166666666667;entryPerimeter=1;" parent="1" source="pLCtcRJWkeLQ_BAob0Jh-99" target="pLCtcRJWkeLQ_BAob0Jh-60" edge="1">
            <mxGeometry width="100" height="100" relative="1" as="geometry" />
          </mxCell>
        </UserObject>
        <UserObject label="" lucidchartObjectId="Ck2wTKAyaiJr" id="pLCtcRJWkeLQ_BAob0Jh-77">
          <mxCell style="html=1;jettySize=18;overflow=width;strokeColor=#333333;strokeOpacity=100;rounded=1;arcSize=24;edgeStyle=orthogonalEdgeStyle;startArrow=none;;endArrow=none;;exitX=0.7856125824983364;exitY=1.0066666666666682;exitPerimeter=1;entryX=1;entryY=0.5;entryDx=0;entryDy=0;" parent="1" source="pLCtcRJWkeLQ_BAob0Jh-3" target="pLCtcRJWkeLQ_BAob0Jh-64" edge="1">
            <mxGeometry width="100" height="100" relative="1" as="geometry">
              <Array as="points" />
            </mxGeometry>
          </mxCell>
        </UserObject>
        <UserObject label="" lucidchartObjectId="-k2wym~Uyhia" id="pLCtcRJWkeLQ_BAob0Jh-78">
          <mxCell style="html=1;jettySize=18;overflow=width;rounded=0;startArrow=none;;endArrow=none;;exitX=0.095;exitY=0.057;exitPerimeter=0;entryX=0.4518582841278078;entryY=-0.004807692307692308;entryPerimeter=1;exitDx=0;exitDy=0;" parent="1" source="pLCtcRJWkeLQ_BAob0Jh-64" target="pLCtcRJWkeLQ_BAob0Jh-9" edge="1">
            <mxGeometry width="100" height="100" relative="1" as="geometry">
              <Array as="points" />
            </mxGeometry>
          </mxCell>
        </UserObject>
        <UserObject label="" lucidchartObjectId="~k2w0fMdgVqm" id="pLCtcRJWkeLQ_BAob0Jh-79">
          <mxCell style="html=1;jettySize=18;overflow=width;rounded=0;startArrow=none;;endArrow=none;;exitX=0.024;exitY=0.966;exitPerimeter=0;entryX=0.4999999999999989;entryY=-0.004672897196261682;entryPerimeter=1;exitDx=0;exitDy=0;" parent="1" source="pLCtcRJWkeLQ_BAob0Jh-64" target="pLCtcRJWkeLQ_BAob0Jh-7" edge="1">
            <mxGeometry width="100" height="100" relative="1" as="geometry">
              <Array as="points" />
            </mxGeometry>
          </mxCell>
        </UserObject>
        <UserObject label="" lucidchartObjectId="UQ2w5AL9IjyG" id="pLCtcRJWkeLQ_BAob0Jh-81">
          <mxCell style="html=1;jettySize=18;overflow=width;strokeColor=#333333;strokeOpacity=100;rounded=1;arcSize=24;edgeStyle=orthogonalEdgeStyle;startArrow=none;;endArrow=none;;exitX=0.5;exitY=-0.006944444444444444;exitPerimeter=1;entryX=0.7894008292482327;entryY=1.0066666666666682;entryPerimeter=1;" parent="1" source="pLCtcRJWkeLQ_BAob0Jh-83" target="pLCtcRJWkeLQ_BAob0Jh-5" edge="1">
            <mxGeometry width="100" height="100" relative="1" as="geometry">
              <Array as="points" />
            </mxGeometry>
          </mxCell>
        </UserObject>
        <UserObject label="" lucidchartObjectId="QO2waST2UdMV" id="pLCtcRJWkeLQ_BAob0Jh-82">
          <mxCell style="html=1;jettySize=18;overflow=width;strokeColor=#333333;strokeOpacity=100;rounded=1;arcSize=24;edgeStyle=orthogonalEdgeStyle;startArrow=none;;endArrow=none;;exitX=1.0025;exitY=0.7680000000000003;exitPerimeter=1;entryX=-0.0025;entryY=0.8000000000000003;entryPerimeter=1;" parent="1" source="pLCtcRJWkeLQ_BAob0Jh-5" target="pLCtcRJWkeLQ_BAob0Jh-60" edge="1">
            <mxGeometry width="100" height="100" relative="1" as="geometry">
              <Array as="points" />
            </mxGeometry>
          </mxCell>
        </UserObject>
        <mxCell id="pLCtcRJWkeLQ_BAob0Jh-83" value="owns" style="html=1;whiteSpace=wrap;swimlane;childLayout=stackLayout;horizontal=1;horizontalStack=0;resizeParent=1;resizeParentMax=0;resizeLast=0;collapsible=1;marginBottom=0;swimlaneFillColor=#ffeca9;startSize=24;fontSize=11;fontColor=#333333;align=left;spacingLeft=6.72;spacingRight=11.2;spacingTop=3.2;spacing=2;strokeColor=#333333;strokeOpacity=100;fillOpacity=100;rounded=1;absoluteArcSize=1;arcSize=6;fillColor=#ffeca9;fillColor=#e0e0e0;" parent="1" vertex="1" zOrder="1164.1894179894152">
          <mxGeometry x="436" y="648" width="120" height="43.2" as="geometry" />
        </mxCell>
        <mxCell id="pLCtcRJWkeLQ_BAob0Jh-84" value="" style="part=1;resizeHeight=0;strokeColor=none;align=left;verticalAlign=top;spacingLeft=4;spacingRight=4;overflow=hidden;rotatable=0;points=[[0,0.5],[1,0.5]];portConstraint=eastwest;html=1;swimlaneFillColor=#ffeca9;fontSize=11;fillColor=none;strokeOpacity=100;fillOpacity=100;" parent="pLCtcRJWkeLQ_BAob0Jh-83" vertex="1">
          <mxGeometry y="24" width="120" height="19.2" as="geometry" />
        </mxCell>
        <mxCell id="pLCtcRJWkeLQ_BAob0Jh-85" value="" style="html=1;whiteSpace=wrap;swimlane;childLayout=stackLayout;horizontal=1;horizontalStack=0;resizeParent=1;resizeParentMax=0;resizeLast=0;collapsible=1;marginBottom=0;swimlaneFillColor=#ffeca9;startSize=24;fontSize=11;align=left;spacingLeft=6.72;spacingRight=11.2;spacingTop=3.2;spacing=2;strokeColor=#333333;strokeOpacity=100;fillOpacity=100;rounded=1;absoluteArcSize=1;arcSize=6;fillColor=#ffeca9;fillColor=#e0e0e0;" parent="1" vertex="1" zOrder="1166.1894179894152">
          <mxGeometry x="1191" y="273" width="120" height="43.2" as="geometry" />
        </mxCell>
        <mxCell id="pLCtcRJWkeLQ_BAob0Jh-86" value="" style="part=1;resizeHeight=0;strokeColor=none;align=left;verticalAlign=top;spacingLeft=4;spacingRight=4;overflow=hidden;rotatable=0;points=[[0,0.5],[1,0.5]];portConstraint=eastwest;html=1;swimlaneFillColor=#ffeca9;fontSize=11;fillColor=none;strokeOpacity=100;fillOpacity=100;" parent="pLCtcRJWkeLQ_BAob0Jh-85" vertex="1">
          <mxGeometry y="24" width="120" height="19.2" as="geometry" />
        </mxCell>
        <mxCell id="pLCtcRJWkeLQ_BAob0Jh-87" value="" style="html=1;whiteSpace=wrap;swimlane;childLayout=stackLayout;horizontal=1;horizontalStack=0;resizeParent=1;resizeParentMax=0;resizeLast=0;collapsible=1;marginBottom=0;swimlaneFillColor=#ffffff;startSize=24;fontSize=11;align=left;spacingLeft=6.72;spacingRight=11.2;spacingTop=3.2;spacing=2;strokeColor=#333333;strokeOpacity=100;fillOpacity=100;rounded=1;absoluteArcSize=1;arcSize=6;fillColor=#ffffff;fillColor=#e0e0e0;" parent="1" vertex="1" zOrder="1167.1894179894152">
          <mxGeometry x="1191" y="340" width="120" height="45" as="geometry" />
        </mxCell>
        <mxCell id="pLCtcRJWkeLQ_BAob0Jh-88" value="" style="part=1;resizeHeight=0;strokeColor=none;align=left;verticalAlign=top;spacingLeft=4;spacingRight=4;overflow=hidden;rotatable=0;points=[[0,0.5],[1,0.5]];portConstraint=eastwest;html=1;swimlaneFillColor=#ffffff;fontSize=11;fillColor=none;strokeOpacity=100;fillOpacity=100;" parent="pLCtcRJWkeLQ_BAob0Jh-87" vertex="1">
          <mxGeometry y="24" width="120" height="21" as="geometry" />
        </mxCell>
        <UserObject label="ISA" lucidchartObjectId="l-2wIg3yZZOA" id="pLCtcRJWkeLQ_BAob0Jh-89">
          <mxCell style="html=1;whiteSpace=wrap;shape=triangle;direction=north;fontSize=11;fontColor=#333333;align=center;spacingLeft=6.72;spacingRight=11.2;spacingTop=3.2;spacing=3;fillOpacity=100;rounded=1;absoluteArcSize=1;arcSize=9.6;fillColor=#29aae1;strokeWidth=2;" parent="1" vertex="1" zOrder="1169.1894179894152">
            <mxGeometry x="1207" y="409" width="88" height="42" as="geometry" />
          </mxCell>
        </UserObject>
        <UserObject label="ï¼šIS-A Relationship" lucidchartObjectId="r-2wBbqQOeYs" id="pLCtcRJWkeLQ_BAob0Jh-90">
          <mxCell style="html=1;whiteSpace=wrap;strokeColor=none;fontSize=15;fontColor=#333333;align=center;spacingLeft=6.72;spacingRight=11.2;spacingTop=3.2;spacing=0;strokeOpacity=100;fillOpacity=100;rounded=1;absoluteArcSize=1;arcSize=9.6;fillColor=#ffffff;" parent="1" vertex="1" zOrder="1170.1894179894152">
            <mxGeometry x="1314" y="418" width="186" height="36" as="geometry" />
          </mxCell>
        </UserObject>
        <UserObject label="" lucidchartObjectId="I-2w4Uqa_dov" id="pLCtcRJWkeLQ_BAob0Jh-91">
          <mxCell style="html=1;whiteSpace=wrap;container=1;collapsible=0;fontSize=11;spacing=0;strokeColor=#333333;strokeOpacity=100;fillOpacity=0;rounded=1;absoluteArcSize=1;arcSize=9.6;fillColor=#000000;" parent="1" vertex="1" zOrder="1171.1894179894152">
            <mxGeometry x="1170" y="250" width="338" height="233.8" as="geometry" />
          </mxCell>
        </UserObject>
        <UserObject label="" lucidchartObjectId="_e3w~1yXf~MK" id="pLCtcRJWkeLQ_BAob0Jh-92">
          <mxCell style="html=1;whiteSpace=wrap;container=1;collapsible=0;fontSize=11;spacing=0;strokeColor=#333333;strokeOpacity=100;fillOpacity=0;rounded=1;absoluteArcSize=1;arcSize=9.6;fillColor=#000000;" parent="1" vertex="1" zOrder="1172.1894179894152">
            <mxGeometry x="546" y="1202" width="166" height="104" as="geometry" />
          </mxCell>
        </UserObject>
        <mxCell id="pLCtcRJWkeLQ_BAob0Jh-93" value="CT_Payment_Log" style="html=1;whiteSpace=wrap;swimlane;childLayout=stackLayout;horizontal=1;horizontalStack=0;resizeParent=1;resizeParentMax=0;resizeLast=0;collapsible=1;marginBottom=0;swimlaneFillColor=#ffffff;startSize=24;fontSize=11;fontColor=#333333;align=left;spacing=0;strokeColor=#333333;strokeOpacity=100;fillOpacity=100;rounded=1;absoluteArcSize=1;arcSize=6;fillColor=#ffffff;fillColor=#e0e0e0;" parent="1" vertex="1" zOrder="1173.1894179894152">
          <mxGeometry x="1563" y="564" width="142" height="62.400000000000006" as="geometry" />
        </mxCell>
        <mxCell id="pLCtcRJWkeLQ_BAob0Jh-94" value="&lt;span style=&quot;text-align: center;&quot;&gt;  &lt;/span&gt;&lt;span style=&quot;text-decoration: underline;text-align: center;&quot;&gt;ct_payment_month / year&lt;/span&gt;" style="part=1;resizeHeight=0;strokeColor=none;align=left;verticalAlign=top;spacingLeft=4;spacingRight=4;overflow=hidden;rotatable=0;points=[[0,0.5],[1,0.5]];portConstraint=eastwest;html=1;swimlaneFillColor=#ffffff;fontSize=11;fontStyle=4;fillColor=none;strokeOpacity=100;fillOpacity=100;" parent="pLCtcRJWkeLQ_BAob0Jh-93" vertex="1">
          <mxGeometry y="24" width="142" height="19.2" as="geometry" />
        </mxCell>
        <mxCell id="pLCtcRJWkeLQ_BAob0Jh-95" value="  ct_payment_amount" style="part=1;resizeHeight=0;strokeColor=none;align=left;verticalAlign=top;spacingLeft=4;spacingRight=4;overflow=hidden;rotatable=0;points=[[0,0.5],[1,0.5]];portConstraint=eastwest;html=1;swimlaneFillColor=#ffffff;fontSize=11;fillColor=#000000;opacity=5;" parent="pLCtcRJWkeLQ_BAob0Jh-93" vertex="1">
          <mxGeometry y="43.2" width="142" height="19.2" as="geometry" />
        </mxCell>
        <mxCell id="pLCtcRJWkeLQ_BAob0Jh-96" value="gets_payment" style="html=1;whiteSpace=wrap;swimlane;childLayout=stackLayout;horizontal=1;horizontalStack=0;resizeParent=1;resizeParentMax=0;resizeLast=0;collapsible=1;marginBottom=0;swimlaneFillColor=#ffeca9;startSize=24;fontSize=11;fontColor=#333333;align=left;spacing=0;strokeColor=#333333;strokeOpacity=100;fillOpacity=100;rounded=1;absoluteArcSize=1;arcSize=6;fillColor=#ffeca9;fillColor=#e0e0e0;" parent="1" vertex="1" zOrder="1175.1894179894152">
          <mxGeometry x="1373" y="581" width="120" height="43.2" as="geometry" />
        </mxCell>
        <mxCell id="pLCtcRJWkeLQ_BAob0Jh-97" value="" style="part=1;resizeHeight=0;strokeColor=none;align=left;verticalAlign=top;spacingLeft=4;spacingRight=4;overflow=hidden;rotatable=0;points=[[0,0.5],[1,0.5]];portConstraint=eastwest;html=1;swimlaneFillColor=#ffeca9;fontSize=11;fillColor=none;strokeOpacity=100;fillOpacity=100;" parent="pLCtcRJWkeLQ_BAob0Jh-96" vertex="1">
          <mxGeometry y="24" width="120" height="19.2" as="geometry" />
        </mxCell>
        <UserObject label="" lucidchartObjectId="Rr3wr.L3rlv3" id="pLCtcRJWkeLQ_BAob0Jh-98">
          <mxCell style="html=1;jettySize=18;overflow=width;strokeColor=#333333;strokeOpacity=100;rounded=1;arcSize=24;edgeStyle=orthogonalEdgeStyle;startArrow=none;;endArrow=none;;exitX=1.0021627083509903;exitY=0.26666666666666666;exitPerimeter=1;entryX=-0.002500000000000071;entryY=0.2777777777777778;entryPerimeter=1;" parent="1" source="pLCtcRJWkeLQ_BAob0Jh-3" target="pLCtcRJWkeLQ_BAob0Jh-96" edge="1">
            <mxGeometry width="100" height="100" relative="1" as="geometry">
              <Array as="points" />
            </mxGeometry>
          </mxCell>
        </UserObject>
        <UserObject label="" lucidchartObjectId="OlCFHEK.apBS" id="pLCtcRJWkeLQ_BAob0Jh-99">
          <mxCell style="html=1;whiteSpace=wrap;container=1;collapsible=0;fontSize=11;spacing=0;strokeColor=#333333;strokeOpacity=100;fillOpacity=0;rounded=1;absoluteArcSize=1;arcSize=9.6;fillColor=#000000;" parent="1" vertex="1" zOrder="1179.1894179894152">
            <mxGeometry x="1153" y="938" width="132" height="56" as="geometry" />
          </mxCell>
        </UserObject>
        <UserObject label="" lucidchartObjectId="ynCFn9o-fG6E" id="pLCtcRJWkeLQ_BAob0Jh-100">
          <mxCell style="html=1;whiteSpace=wrap;shape=rhombus;container=1;collapsible=0;fontSize=11;spacing=0;strokeColor=#333333;strokeOpacity=100;fillOpacity=0;rounded=1;absoluteArcSize=1;arcSize=9.6;fillColor=#000000;" parent="1" vertex="1" zOrder="1180.1894179894152">
            <mxGeometry x="180" y="685" width="192" height="91" as="geometry" />
          </mxCell>
        </UserObject>
        <UserObject label="" lucidchartObjectId="5xCFQ~5liByK" id="pLCtcRJWkeLQ_BAob0Jh-101">
          <mxCell style="html=1;whiteSpace=wrap;shape=rhombus;container=1;collapsible=0;fontSize=11;spacing=0;strokeColor=#333333;strokeOpacity=100;fillOpacity=0;rounded=1;absoluteArcSize=1;arcSize=9.6;fillColor=#000000;" parent="1" vertex="1" zOrder="1181.1894179894152">
            <mxGeometry x="809" y="555" width="192" height="91" as="geometry" />
          </mxCell>
        </UserObject>
        <UserObject label="" lucidchartObjectId="1dDFGd8of.lD" id="pLCtcRJWkeLQ_BAob0Jh-102">
          <mxCell style="html=1;jettySize=18;overflow=width;strokeColor=#333333;strokeOpacity=100;rounded=1;arcSize=24;edgeStyle=orthogonalEdgeStyle;startArrow=open;;endArrow=none;;exitX=1.0025;exitY=0.5817417078924021;exitPerimeter=1;entryX=-0.0026109110617122205;entryY=0.7596569963491022;entryPerimeter=1;" parent="1" source="pLCtcRJWkeLQ_BAob0Jh-62" target="pLCtcRJWkeLQ_BAob0Jh-67" edge="1">
            <mxGeometry width="100" height="100" relative="1" as="geometry">
              <Array as="points" />
            </mxGeometry>
          </mxCell>
        </UserObject>
        <UserObject label="" lucidchartObjectId="yjDFZql8tmYS" id="pLCtcRJWkeLQ_BAob0Jh-106">
          <mxCell style="html=1;jettySize=18;overflow=width;strokeColor=#333333;strokeOpacity=100;rounded=0;startArrow=none;;endArrow=none;;exitX=0.49999999977471604;exitY=1.0024602514334262;exitPerimeter=1;entryX=0.5;entryY=0;entryDx=0;entryDy=0;" parent="1" source="pLCtcRJWkeLQ_BAob0Jh-123" target="pLCtcRJWkeLQ_BAob0Jh-62" edge="1">
            <mxGeometry width="100" height="100" relative="1" as="geometry">
              <Array as="points" />
              <mxPoint x="494.99999996971655" y="889" as="targetPoint" />
            </mxGeometry>
          </mxCell>
        </UserObject>
        <mxCell id="pLCtcRJWkeLQ_BAob0Jh-109" value="part_timer_availability" style="html=1;whiteSpace=wrap;swimlane;childLayout=stackLayout;horizontal=1;horizontalStack=0;resizeParent=1;resizeParentMax=0;resizeLast=0;collapsible=1;marginBottom=0;swimlaneFillColor=#ffffff;startSize=24;fontSize=11;fontColor=#333333;align=left;spacing=0;strokeColor=#333333;strokeOpacity=100;fillOpacity=100;rounded=1;absoluteArcSize=1;arcSize=6;fillColor=#ffffff;fillColor=#e0e0e0;" parent="1" vertex="1" zOrder="1189.1894179894152">
          <mxGeometry x="1392" y="1020" width="120" height="62.400000000000006" as="geometry" />
        </mxCell>
        <mxCell id="pLCtcRJWkeLQ_BAob0Jh-110" value="  start_date" style="part=1;resizeHeight=0;strokeColor=none;align=left;verticalAlign=top;spacingLeft=4;spacingRight=4;overflow=hidden;rotatable=0;points=[[0,0.5],[1,0.5]];portConstraint=eastwest;html=1;swimlaneFillColor=#ffffff;fontSize=11;fillColor=none;strokeOpacity=100;fillOpacity=100;" parent="pLCtcRJWkeLQ_BAob0Jh-109" vertex="1">
          <mxGeometry y="24" width="120" height="19.2" as="geometry" />
        </mxCell>
        <mxCell id="pLCtcRJWkeLQ_BAob0Jh-111" value="  end_date" style="part=1;resizeHeight=0;strokeColor=none;align=left;verticalAlign=top;spacingLeft=4;spacingRight=4;overflow=hidden;rotatable=0;points=[[0,0.5],[1,0.5]];portConstraint=eastwest;html=1;swimlaneFillColor=#ffffff;fontSize=11;fillColor=#000000;opacity=5;" parent="pLCtcRJWkeLQ_BAob0Jh-109" vertex="1">
          <mxGeometry y="43.2" width="120" height="19.2" as="geometry" />
        </mxCell>
        <mxCell id="pLCtcRJWkeLQ_BAob0Jh-112" value="full_timer_leave" style="html=1;whiteSpace=wrap;swimlane;childLayout=stackLayout;horizontal=1;horizontalStack=0;resizeParent=1;resizeParentMax=0;resizeLast=0;collapsible=1;marginBottom=0;swimlaneFillColor=#ffffff;startSize=24;fontSize=11;fontColor=#333333;align=left;spacing=0;strokeColor=#333333;strokeOpacity=100;fillOpacity=100;rounded=1;absoluteArcSize=1;arcSize=6;fillColor=#ffffff;fillColor=#e0e0e0;" parent="1" vertex="1" zOrder="1190.1894179894152">
          <mxGeometry x="1563" y="1020" width="120" height="62.400000000000006" as="geometry" />
        </mxCell>
        <mxCell id="pLCtcRJWkeLQ_BAob0Jh-113" value="  start_date" style="part=1;resizeHeight=0;strokeColor=none;align=left;verticalAlign=top;spacingLeft=4;spacingRight=4;overflow=hidden;rotatable=0;points=[[0,0.5],[1,0.5]];portConstraint=eastwest;html=1;swimlaneFillColor=#ffffff;fontSize=11;fillColor=none;strokeOpacity=100;fillOpacity=100;" parent="pLCtcRJWkeLQ_BAob0Jh-112" vertex="1">
          <mxGeometry y="24" width="120" height="19.2" as="geometry" />
        </mxCell>
        <mxCell id="pLCtcRJWkeLQ_BAob0Jh-114" value="  end_date" style="part=1;resizeHeight=0;strokeColor=none;align=left;verticalAlign=top;spacingLeft=4;spacingRight=4;overflow=hidden;rotatable=0;points=[[0,0.5],[1,0.5]];portConstraint=eastwest;html=1;swimlaneFillColor=#ffffff;fontSize=11;fillColor=#000000;opacity=5;" parent="pLCtcRJWkeLQ_BAob0Jh-112" vertex="1">
          <mxGeometry y="43.2" width="120" height="19.2" as="geometry" />
        </mxCell>
        <mxCell id="pLCtcRJWkeLQ_BAob0Jh-115" value="indicates" style="html=1;whiteSpace=wrap;swimlane;childLayout=stackLayout;horizontal=1;horizontalStack=0;resizeParent=1;resizeParentMax=0;resizeLast=0;collapsible=1;marginBottom=0;swimlaneFillColor=#ffeca9;startSize=24;fontSize=11;fontColor=#333333;align=left;spacing=0;strokeColor=#333333;strokeOpacity=100;fillOpacity=100;rounded=1;absoluteArcSize=1;arcSize=6;fillColor=#ffeca9;fillColor=#e0e0e0;" parent="1" vertex="1" zOrder="1191.1894179894152">
          <mxGeometry x="1392" y="938" width="120" height="43.2" as="geometry" />
        </mxCell>
        <mxCell id="pLCtcRJWkeLQ_BAob0Jh-116" value="" style="part=1;resizeHeight=0;strokeColor=none;align=left;verticalAlign=top;spacingLeft=4;spacingRight=4;overflow=hidden;rotatable=0;points=[[0,0.5],[1,0.5]];portConstraint=eastwest;html=1;swimlaneFillColor=#ffeca9;fontSize=11;fillColor=none;strokeOpacity=100;fillOpacity=100;" parent="pLCtcRJWkeLQ_BAob0Jh-115" vertex="1">
          <mxGeometry y="24" width="120" height="19.2" as="geometry" />
        </mxCell>
        <mxCell id="pLCtcRJWkeLQ_BAob0Jh-117" value="applies_for" style="html=1;whiteSpace=wrap;swimlane;childLayout=stackLayout;horizontal=1;horizontalStack=0;resizeParent=1;resizeParentMax=0;resizeLast=0;collapsible=1;marginBottom=0;swimlaneFillColor=#ffeca9;startSize=24;fontSize=11;fontColor=#333333;align=left;spacing=0;strokeColor=#333333;strokeOpacity=100;fillOpacity=100;rounded=1;absoluteArcSize=1;arcSize=6;fillColor=#ffeca9;fillColor=#e0e0e0;" parent="1" vertex="1" zOrder="1192.1894179894152">
          <mxGeometry x="1563" y="937" width="120" height="43.2" as="geometry" />
        </mxCell>
        <mxCell id="pLCtcRJWkeLQ_BAob0Jh-118" value="" style="part=1;resizeHeight=0;strokeColor=none;align=left;verticalAlign=top;spacingLeft=4;spacingRight=4;overflow=hidden;rotatable=0;points=[[0,0.5],[1,0.5]];portConstraint=eastwest;html=1;swimlaneFillColor=#ffeca9;fontSize=11;fillColor=none;strokeOpacity=100;fillOpacity=100;" parent="pLCtcRJWkeLQ_BAob0Jh-117" vertex="1">
          <mxGeometry y="24" width="120" height="19.2" as="geometry" />
        </mxCell>
        <UserObject label="" lucidchartObjectId="aRDFBVquUC3t" id="pLCtcRJWkeLQ_BAob0Jh-119">
          <mxCell style="html=1;jettySize=18;overflow=width;strokeColor=#333333;strokeOpacity=100;rounded=1;arcSize=24;edgeStyle=orthogonalEdgeStyle;startArrow=none;;endArrow=none;;exitX=0.5;exitY=1.0069444444444444;exitPerimeter=1;entryX=0.4692806465316471;entryY=-0.006944444444444444;entryPerimeter=1;" parent="1" source="pLCtcRJWkeLQ_BAob0Jh-9" target="pLCtcRJWkeLQ_BAob0Jh-115" edge="1">
            <mxGeometry width="100" height="100" relative="1" as="geometry">
              <Array as="points" />
            </mxGeometry>
          </mxCell>
        </UserObject>
        <UserObject label="" lucidchartObjectId="nRDFc.aytdxM" id="pLCtcRJWkeLQ_BAob0Jh-120">
          <mxCell style="html=1;jettySize=18;overflow=width;strokeColor=#333333;strokeOpacity=100;rounded=1;arcSize=24;edgeStyle=orthogonalEdgeStyle;startArrow=none;;endArrow=none;;exitX=0.5;exitY=-0.004807692307692308;exitPerimeter=1;entryX=0.5;entryY=1.0069444444444444;entryPerimeter=1;" parent="1" source="pLCtcRJWkeLQ_BAob0Jh-109" target="pLCtcRJWkeLQ_BAob0Jh-115" edge="1">
            <mxGeometry width="100" height="100" relative="1" as="geometry">
              <Array as="points" />
            </mxGeometry>
          </mxCell>
        </UserObject>
        <UserObject label="" lucidchartObjectId="BRDFB7YHecQf" id="pLCtcRJWkeLQ_BAob0Jh-121">
          <mxCell style="html=1;jettySize=18;overflow=width;strokeColor=#333333;strokeOpacity=100;rounded=1;arcSize=24;edgeStyle=orthogonalEdgeStyle;startArrow=none;;endArrow=none;;exitX=0.5;exitY=1.0066666666666666;exitPerimeter=1;entryX=0.5;entryY=-0.006944444444444444;entryPerimeter=1;" parent="1" source="pLCtcRJWkeLQ_BAob0Jh-7" target="pLCtcRJWkeLQ_BAob0Jh-117" edge="1">
            <mxGeometry width="100" height="100" relative="1" as="geometry">
              <Array as="points" />
            </mxGeometry>
          </mxCell>
        </UserObject>
        <UserObject label="" lucidchartObjectId="BSDFmC8d.9te" id="pLCtcRJWkeLQ_BAob0Jh-122">
          <mxCell style="html=1;jettySize=18;overflow=width;strokeColor=#333333;strokeOpacity=100;rounded=1;arcSize=24;edgeStyle=orthogonalEdgeStyle;startArrow=none;;endArrow=none;;exitX=0.5;exitY=1.0069444444444444;exitPerimeter=1;entryX=0.5;entryY=-0.004807692307692308;entryPerimeter=1;" parent="1" source="pLCtcRJWkeLQ_BAob0Jh-117" target="pLCtcRJWkeLQ_BAob0Jh-112" edge="1">
            <mxGeometry width="100" height="100" relative="1" as="geometry">
              <Array as="points" />
            </mxGeometry>
          </mxCell>
        </UserObject>
        <UserObject label="" lucidchartObjectId="-5xH_6-tKfay" id="pLCtcRJWkeLQ_BAob0Jh-123">
          <mxCell style="html=1;whiteSpace=wrap;container=1;collapsible=0;fontSize=11;spacing=0;strokeColor=#333333;strokeOpacity=100;fillOpacity=0;rounded=1;absoluteArcSize=1;arcSize=9.6;fillColor=#000000;" parent="1" vertex="1" zOrder="1197.1894179894152">
            <mxGeometry x="427" y="730" width="136" height="122" as="geometry" />
          </mxCell>
        </UserObject>
        <UserObject label="" lucidchartObjectId="W7xHw_AQcGHq" id="pLCtcRJWkeLQ_BAob0Jh-125">
          <mxCell style="html=1;whiteSpace=wrap;container=1;collapsible=0;fontSize=11;spacing=0;strokeColor=#333333;strokeOpacity=100;fillOpacity=0;rounded=1;absoluteArcSize=1;arcSize=9.6;fillColor=#000000;" parent="1" vertex="1" zOrder="1199.1894179894152">
            <mxGeometry x="1551" y="552" width="165" height="84" as="geometry" />
          </mxCell>
        </UserObject>
        <UserObject label="ï¼šEntity (pascal case)" lucidchartObjectId="r-2wBbqQOeYs" id="pLCtcRJWkeLQ_BAob0Jh-126">
          <mxCell style="html=1;whiteSpace=wrap;strokeColor=none;fontSize=15;fontColor=#333333;align=center;spacingLeft=6.72;spacingRight=11.2;spacingTop=3.2;spacing=0;strokeOpacity=100;fillOpacity=100;rounded=1;absoluteArcSize=1;arcSize=9.6;fillColor=#ffffff;" parent="1" vertex="1" zOrder="1170.1894179894152">
            <mxGeometry x="1322" y="344.5" width="186" height="36" as="geometry" />
          </mxCell>
        </UserObject>
        <mxCell id="pLCtcRJWkeLQ_BAob0Jh-129" value="" style="shape=flexArrow;html=1;exitX=0.01;exitY=0.54;exitDx=0;exitDy=0;exitPerimeter=0;entryX=1;entryY=0.5;entryDx=0;entryDy=0;" parent="1" source="pLCtcRJWkeLQ_BAob0Jh-125" target="pLCtcRJWkeLQ_BAob0Jh-96" edge="1">
          <mxGeometry width="100" height="100" relative="1" as="geometry">
            <mxPoint x="1530" y="720" as="sourcePoint" />
            <mxPoint x="1630" y="620" as="targetPoint" />
          </mxGeometry>
        </mxCell>
        <mxCell id="pLCtcRJWkeLQ_BAob0Jh-130" value="" style="shape=flexArrow;html=1;" parent="1" source="pLCtcRJWkeLQ_BAob0Jh-123" target="pLCtcRJWkeLQ_BAob0Jh-84" edge="1">
          <mxGeometry width="100" height="100" relative="1" as="geometry">
            <mxPoint x="490" y="810" as="sourcePoint" />
            <mxPoint x="590" y="710" as="targetPoint" />
          </mxGeometry>
        </mxCell>
        <mxCell id="pLCtcRJWkeLQ_BAob0Jh-131" value="" style="shape=flexArrow;html=1;entryX=0.5;entryY=1;entryDx=0;entryDy=0;exitX=0;exitY=0.5;exitDx=0;exitDy=0;" parent="1" source="pLCtcRJWkeLQ_BAob0Jh-92" target="pLCtcRJWkeLQ_BAob0Jh-100" edge="1">
          <mxGeometry width="100" height="100" relative="1" as="geometry">
            <mxPoint x="380" y="1280" as="sourcePoint" />
            <mxPoint x="480" y="1180" as="targetPoint" />
            <Array as="points">
              <mxPoint x="280" y="1250" />
            </Array>
          </mxGeometry>
        </mxCell>
        <mxCell id="pLCtcRJWkeLQ_BAob0Jh-133" value="" style="shape=flexArrow;html=1;exitX=1;exitY=0.5;exitDx=0;exitDy=0;entryX=0;entryY=0.5;entryDx=0;entryDy=0;" parent="1" source="pLCtcRJWkeLQ_BAob0Jh-92" target="pLCtcRJWkeLQ_BAob0Jh-55" edge="1">
          <mxGeometry width="100" height="100" relative="1" as="geometry">
            <mxPoint x="750" y="1310" as="sourcePoint" />
            <mxPoint x="850" y="1210" as="targetPoint" />
          </mxGeometry>
        </mxCell>
        <mxCell id="pLCtcRJWkeLQ_BAob0Jh-134" value="" style="shape=flexArrow;html=1;exitX=0.5;exitY=0;exitDx=0;exitDy=0;" parent="1" source="pLCtcRJWkeLQ_BAob0Jh-124" target="pLCtcRJWkeLQ_BAob0Jh-101" edge="1">
          <mxGeometry width="100" height="100" relative="1" as="geometry">
            <mxPoint x="845" y="710" as="sourcePoint" />
            <mxPoint x="997" y="717.5999999999999" as="targetPoint" />
          </mxGeometry>
        </mxCell>
        <mxCell id="qUHvd3HAfiUAHluRIVGr-14" value="" style="group" vertex="1" connectable="0" parent="1">
          <mxGeometry x="837" y="760" width="136" height="219" as="geometry" />
        </mxCell>
        <mxCell id="pLCtcRJWkeLQ_BAob0Jh-67" value="Bid" style="html=1;whiteSpace=wrap;swimlane;childLayout=stackLayout;horizontal=1;horizontalStack=0;resizeParent=1;resizeParentMax=0;resizeLast=0;collapsible=1;marginBottom=0;swimlaneFillColor=#ffffff;startSize=24;fontSize=11;fontColor=#333333;align=left;spacingLeft=6.72;spacingRight=11.2;spacingTop=3.2;spacing=2;strokeColor=#333333;strokeOpacity=100;fillOpacity=100;rounded=1;absoluteArcSize=1;arcSize=6;fillColor=#ffffff;fillColor=#e0e0e0;" parent="qUHvd3HAfiUAHluRIVGr-14" vertex="1" zOrder="1155.1894179894152">
          <mxGeometry x="10.5" y="10.799999999999955" width="115" height="198.59999999999997" as="geometry">
            <mxRectangle x="848" y="763" width="70" height="30" as="alternateBounds" />
          </mxGeometry>
        </mxCell>
        <mxCell id="pLCtcRJWkeLQ_BAob0Jh-68" value="ct_email" style="part=1;resizeHeight=0;strokeColor=none;align=left;verticalAlign=top;spacingLeft=4;spacingRight=4;overflow=hidden;rotatable=0;points=[[0,0.5],[1,0.5]];portConstraint=eastwest;html=1;swimlaneFillColor=#ffffff;fontSize=11;fontColor=#333333;fontStyle=4;fillColor=none;strokeOpacity=100;fillOpacity=100;" parent="pLCtcRJWkeLQ_BAob0Jh-67" vertex="1">
          <mxGeometry y="24" width="115" height="21" as="geometry" />
        </mxCell>
        <mxCell id="pLCtcRJWkeLQ_BAob0Jh-69" value="&lt;u&gt;  owner_email&lt;/u&gt;" style="part=1;resizeHeight=0;strokeColor=none;align=left;verticalAlign=top;spacingLeft=4;spacingRight=4;overflow=hidden;rotatable=0;points=[[0,0.5],[1,0.5]];portConstraint=eastwest;html=1;swimlaneFillColor=#ffffff;fontSize=11;fillColor=#000000;opacity=5;" parent="pLCtcRJWkeLQ_BAob0Jh-67" vertex="1">
          <mxGeometry y="45" width="115" height="19.2" as="geometry" />
        </mxCell>
        <mxCell id="pLCtcRJWkeLQ_BAob0Jh-70" value="&lt;u&gt;  pet_name&lt;/u&gt;" style="part=1;resizeHeight=0;strokeColor=none;align=left;verticalAlign=top;spacingLeft=4;spacingRight=4;overflow=hidden;rotatable=0;points=[[0,0.5],[1,0.5]];portConstraint=eastwest;html=1;swimlaneFillColor=#ffffff;fontSize=11;fillColor=none;strokeOpacity=100;fillOpacity=100;" parent="pLCtcRJWkeLQ_BAob0Jh-67" vertex="1">
          <mxGeometry y="64.2" width="115" height="19.2" as="geometry" />
        </mxCell>
        <mxCell id="pLCtcRJWkeLQ_BAob0Jh-71" value="start_date" style="part=1;resizeHeight=0;strokeColor=none;align=left;verticalAlign=top;spacingLeft=4;spacingRight=4;overflow=hidden;rotatable=0;points=[[0,0.5],[1,0.5]];portConstraint=eastwest;html=1;swimlaneFillColor=#ffffff;fontSize=11;fillColor=#000000;opacity=5;fontStyle=4" parent="pLCtcRJWkeLQ_BAob0Jh-67" vertex="1">
          <mxGeometry y="83.4" width="115" height="19.2" as="geometry" />
        </mxCell>
        <mxCell id="pLCtcRJWkeLQ_BAob0Jh-72" value="end_date" style="part=1;resizeHeight=0;strokeColor=none;align=left;verticalAlign=top;spacingLeft=4;spacingRight=4;overflow=hidden;rotatable=0;points=[[0,0.5],[1,0.5]];portConstraint=eastwest;html=1;swimlaneFillColor=#ffffff;fontSize=11;fillColor=none;strokeOpacity=100;fillOpacity=100;" parent="pLCtcRJWkeLQ_BAob0Jh-67" vertex="1">
          <mxGeometry y="102.60000000000001" width="115" height="19.2" as="geometry" />
        </mxCell>
        <mxCell id="pLCtcRJWkeLQ_BAob0Jh-73" value="  ct_price" style="part=1;resizeHeight=0;strokeColor=none;align=left;verticalAlign=top;spacingLeft=4;spacingRight=4;overflow=hidden;rotatable=0;points=[[0,0.5],[1,0.5]];portConstraint=eastwest;html=1;swimlaneFillColor=#ffffff;fontSize=11;fillColor=#000000;opacity=5;" parent="pLCtcRJWkeLQ_BAob0Jh-67" vertex="1">
          <mxGeometry y="121.80000000000001" width="115" height="19.2" as="geometry" />
        </mxCell>
        <mxCell id="pLCtcRJWkeLQ_BAob0Jh-74" value="  is_cash" style="part=1;resizeHeight=0;strokeColor=none;align=left;verticalAlign=top;spacingLeft=4;spacingRight=4;overflow=hidden;rotatable=0;points=[[0,0.5],[1,0.5]];portConstraint=eastwest;html=1;swimlaneFillColor=#ffffff;fontSize=11;fillColor=none;strokeOpacity=100;fillOpacity=100;" parent="pLCtcRJWkeLQ_BAob0Jh-67" vertex="1">
          <mxGeometry y="141" width="115" height="19.2" as="geometry" />
        </mxCell>
        <mxCell id="pLCtcRJWkeLQ_BAob0Jh-75" value="  transport_method" style="part=1;resizeHeight=0;strokeColor=none;align=left;verticalAlign=top;spacingLeft=4;spacingRight=4;overflow=hidden;rotatable=0;points=[[0,0.5],[1,0.5]];portConstraint=eastwest;html=1;swimlaneFillColor=#ffffff;fontSize=11;fillColor=#000000;opacity=5;" parent="pLCtcRJWkeLQ_BAob0Jh-67" vertex="1">
          <mxGeometry y="160.2" width="115" height="19.2" as="geometry" />
        </mxCell>
        <mxCell id="pLCtcRJWkeLQ_BAob0Jh-76" value="  updated_at" style="part=1;resizeHeight=0;strokeColor=none;align=left;verticalAlign=top;spacingLeft=4;spacingRight=4;overflow=hidden;rotatable=0;points=[[0,0.5],[1,0.5]];portConstraint=eastwest;html=1;swimlaneFillColor=#ffffff;fontSize=11;fillColor=none;strokeOpacity=100;fillOpacity=100;" parent="pLCtcRJWkeLQ_BAob0Jh-67" vertex="1">
          <mxGeometry y="179.39999999999998" width="115" height="19.2" as="geometry" />
        </mxCell>
        <UserObject label="" lucidchartObjectId="h6xHEq8RV3xS" id="pLCtcRJWkeLQ_BAob0Jh-124">
          <mxCell style="html=1;whiteSpace=wrap;container=1;collapsible=0;fontSize=11;spacing=0;strokeColor=#333333;strokeOpacity=100;fillOpacity=0;rounded=1;absoluteArcSize=1;arcSize=9.6;fillColor=#000000;" parent="qUHvd3HAfiUAHluRIVGr-14" vertex="1" zOrder="1198.1894179894152">
            <mxGeometry width="136" height="219" as="geometry" />
          </mxCell>
        </UserObject>
      </root>
    </mxGraphModel>
  </diagram>
</mxfile>
